<mxfile host="app.diagrams.net" modified="2024-04-01T00:05:25.853Z" agent="Mozilla/5.0 (Windows NT 10.0; Win64; x64) AppleWebKit/537.36 (KHTML, like Gecko) Chrome/123.0.0.0 Safari/537.36" etag="U8_VrqDpNfFycttIWvSK" version="24.2.1" type="device">
  <diagram name="Page-1" id="j3bJ796ipqwLlpyQ7kwF">
    <mxGraphModel dx="1593" dy="858" grid="1" gridSize="10" guides="1" tooltips="1" connect="1" arrows="1" fold="1" page="1" pageScale="1" pageWidth="827" pageHeight="1169" math="0" shadow="0">
      <root>
        <mxCell id="0" />
        <mxCell id="1" parent="0" />
        <mxCell id="htj9lrFPSWlIHF2Fdgeb-1" value="" style="rounded=1;whiteSpace=wrap;html=1;perimeterSpacing=0;arcSize=5;fillColor=#697a91;strokeColor=default;strokeWidth=3;" parent="1" vertex="1">
          <mxGeometry x="120" y="80" width="560" height="560" as="geometry" />
        </mxCell>
        <mxCell id="htj9lrFPSWlIHF2Fdgeb-2" value="" style="rounded=1;whiteSpace=wrap;html=1;fillColor=#d7e0e5;strokeColor=none;arcSize=8;strokeWidth=2;fillStyle=solid;gradientColor=none;shadow=1;" parent="1" vertex="1">
          <mxGeometry x="150" y="100" width="150" height="520" as="geometry" />
        </mxCell>
        <mxCell id="htj9lrFPSWlIHF2Fdgeb-3" value="" style="rounded=1;whiteSpace=wrap;html=1;fillColor=#D7E0E5;strokeColor=none;arcSize=8;strokeWidth=2;shadow=1;fillStyle=solid;" parent="1" vertex="1">
          <mxGeometry x="325" y="100" width="150" height="520" as="geometry" />
        </mxCell>
        <mxCell id="htj9lrFPSWlIHF2Fdgeb-4" value="" style="rounded=1;whiteSpace=wrap;html=1;fillColor=#D7E0E5;strokeColor=none;arcSize=8;strokeWidth=2;shadow=1;shadowBlur=2;" parent="1" vertex="1">
          <mxGeometry x="500" y="100" width="150" height="520" as="geometry" />
        </mxCell>
        <mxCell id="htj9lrFPSWlIHF2Fdgeb-5" value="" style="rounded=1;whiteSpace=wrap;html=1;fillStyle=solid;fillColor=#385170;strokeColor=default;fontColor=#000000;" parent="1" vertex="1">
          <mxGeometry x="165" y="120" width="120" height="110" as="geometry" />
        </mxCell>
        <mxCell id="htj9lrFPSWlIHF2Fdgeb-27" value="" style="rounded=1;whiteSpace=wrap;html=1;fillColor=#385170;strokeColor=default;fontColor=#000000;gradientColor=none;opacity=30;" parent="1" vertex="1">
          <mxGeometry x="515" y="364" width="120" height="110" as="geometry" />
        </mxCell>
        <mxCell id="htj9lrFPSWlIHF2Fdgeb-57" value="" style="rounded=1;whiteSpace=wrap;html=1;fillStyle=solid;fillColor=#385170;strokeColor=default;fontColor=#000000;" parent="1" vertex="1">
          <mxGeometry x="165" y="242" width="120" height="110" as="geometry" />
        </mxCell>
        <mxCell id="htj9lrFPSWlIHF2Fdgeb-58" value="" style="rounded=1;whiteSpace=wrap;html=1;fillStyle=solid;fillColor=#385170;strokeColor=default;fontColor=#000000;" parent="1" vertex="1">
          <mxGeometry x="165" y="364" width="120" height="110" as="geometry" />
        </mxCell>
        <mxCell id="htj9lrFPSWlIHF2Fdgeb-20" value="" style="html=1;shadow=0;dashed=0;align=center;verticalAlign=middle;shape=mxgraph.arrows2.jumpInArrow;dy=20.5;dx=72;arrowHead=79;flipV=1;flipH=0;fillColor=#D7E0E5;strokeColor=#000000;gradientColor=#385170;gradientDirection=east;" parent="1" vertex="1">
          <mxGeometry x="225" y="230" width="290" height="230" as="geometry" />
        </mxCell>
        <mxCell id="3wRXX5DGnffCEUnww5yt-2" value="" style="rounded=1;whiteSpace=wrap;html=1;fillStyle=solid;fillColor=#385170;strokeColor=default;fontColor=#000000;" vertex="1" parent="1">
          <mxGeometry x="165" y="486" width="120" height="110" as="geometry" />
        </mxCell>
        <mxCell id="3wRXX5DGnffCEUnww5yt-3" value="" style="rounded=1;whiteSpace=wrap;html=1;fillStyle=solid;fillColor=#385170;strokeColor=default;fontColor=#000000;" vertex="1" parent="1">
          <mxGeometry x="340" y="120" width="120" height="110" as="geometry" />
        </mxCell>
        <mxCell id="3wRXX5DGnffCEUnww5yt-4" value="" style="rounded=1;whiteSpace=wrap;html=1;fillStyle=solid;fillColor=#385170;strokeColor=default;fontColor=#000000;" vertex="1" parent="1">
          <mxGeometry x="340" y="242" width="120" height="110" as="geometry" />
        </mxCell>
        <mxCell id="3wRXX5DGnffCEUnww5yt-5" value="" style="rounded=1;whiteSpace=wrap;html=1;fillStyle=solid;fillColor=#385170;strokeColor=default;fontColor=#000000;" vertex="1" parent="1">
          <mxGeometry x="515" y="120" width="120" height="110" as="geometry" />
        </mxCell>
        <mxCell id="3wRXX5DGnffCEUnww5yt-6" value="" style="rounded=1;whiteSpace=wrap;html=1;fillStyle=solid;fillColor=#385170;strokeColor=default;fontColor=#000000;" vertex="1" parent="1">
          <mxGeometry x="515" y="242" width="120" height="110" as="geometry" />
        </mxCell>
      </root>
    </mxGraphModel>
  </diagram>
</mxfile>
